<svg width="40" height="40" viewBox="0 0 40 40" fill="none" xmlns="http://www.w3.org/2000/svg">
<rect width="40" height="40" rx="20" fill="white" fill-opacity="0.2"/>
<path fill-rule="evenodd" clip-rule="evenodd" d="M24.632 15.2033C23.7041 15.9734 22.7774 16.5354 22.049 16.9173C22.5814 17.2335 23.1675 17.3029 23.6696 17.184C23.9342 17.1216 24.1736 17.0061 24.3652 16.8475C24.5422 16.7007 24.6768 16.5162 24.7483 16.3041C24.8491 16.0031 24.8276 15.6304 24.632 15.2033ZM23.1394 21.4151L22.1753 20.8296C22.0821 20.7925 22.0023 20.7254 21.9476 20.6378C21.8928 20.5502 21.8659 20.4466 21.8706 20.3419C21.9589 18.377 21.4543 17.5081 20.7737 16.9626C20.5294 16.7672 20.2629 16.669 20 16.669C19.7371 16.669 19.4706 16.7672 19.2264 16.9626C18.5458 17.5081 18.0412 18.377 18.1295 20.3419C18.1342 20.4466 18.1072 20.5502 18.0525 20.6378C17.9977 20.7254 17.918 20.7925 17.8248 20.8296L16.8606 21.4151C18.7043 22.5016 19.2907 24.46 19.8799 26.4277C19.9198 26.5609 19.9597 26.6942 20 26.8272C20.0404 26.694 20.0803 26.5606 20.1202 26.4273C20.7094 24.4597 21.2958 22.5015 23.1394 21.4151ZM23.2013 8.70143C22.2317 8.25893 21.1144 8.03146 20 8C18.8856 8.03146 17.7684 8.25893 16.7987 8.70143C16.1273 9.00825 15.5008 9.41353 14.9335 9.89817C14.6774 10.117 14.4664 10.3284 14.234 10.5716C13.6072 10.5944 12.6913 9.86237 12.2661 9.17739C12.9979 11.6999 16.3374 14.6787 18.6494 15.8186C18.6504 15.8182 18.651 15.8175 18.6517 15.8171C19.0667 15.484 19.5333 15.3174 20 15.3174C20.4667 15.3174 20.9334 15.484 21.3483 15.8171C21.3491 15.8176 21.3497 15.8182 21.3506 15.8186C23.6626 14.6787 27.0021 11.6999 27.734 9.17739C27.3087 9.86237 26.3928 10.5944 25.766 10.5716C25.5337 10.3283 25.3227 10.117 25.0665 9.89817C24.4992 9.41353 23.8727 9.00825 23.2013 8.70143ZM15.3681 15.2033C16.2959 15.9734 17.2227 16.5354 17.951 16.9173C17.4187 17.2335 16.8325 17.3029 16.3305 17.184C16.0659 17.1216 15.8265 17.0061 15.6348 16.8475C15.4579 16.7007 15.3233 16.5162 15.2517 16.3041C15.151 16.0031 15.1725 15.6304 15.3681 15.2033ZM26.971 12.5825C26.609 13.1178 26.159 13.7176 25.6482 14.2596L25.6483 14.2597L25.8078 14.6081C26.1176 15.2848 26.2203 16.0413 25.9788 16.7608C25.8233 17.2243 25.5391 17.6217 25.173 17.9251C24.8175 18.2197 24.3967 18.4183 23.9561 18.5226C23.6691 18.5906 23.3767 18.6185 23.0863 18.609C23.154 19.013 23.1837 19.4319 23.1856 19.8588L25.778 21.4331L23.7775 22.612C23.6176 22.7063 23.4654 22.8143 23.3225 22.9349C21.9772 24.2047 21.0696 27.5028 20.4108 29.8965C20.2619 30.4376 20.1257 30.9325 20.0001 31.3473C19.8745 30.9327 19.7383 30.438 19.5895 29.897C18.9308 27.5033 18.0231 24.2048 16.6778 22.9349C16.5348 22.8143 16.3826 22.7063 16.2227 22.612L14.2222 21.4331L16.8146 19.8588C16.8165 19.4319 16.8461 19.013 16.9139 18.609C16.6234 18.6185 16.331 18.5906 16.044 18.5226C15.6035 18.4183 15.1827 18.2197 14.8271 17.9251C14.461 17.6217 14.1769 17.2243 14.0213 16.7608C13.7798 16.0413 13.8825 15.2847 14.1924 14.6081L14.3519 14.2597C13.841 13.7176 13.391 13.1178 13.0291 12.5825L12.8454 12.9463C12.2535 14.1909 11.9461 15.4306 11.9461 16.8259L11.9474 19.0398L11.9363 20.1875C11.8933 23.0051 11.3135 25.8557 10 28.4645L12.7483 26.1346L14.6928 29.4522L16.7356 27.4303L20 33L23.2644 27.4302L25.3073 29.4522L27.2518 26.1345L30 28.4644C28.6865 25.8557 28.1067 23.005 28.0638 20.1874L28.0527 19.0397L28.054 16.8258C28.054 15.4306 27.7465 14.1909 27.1548 12.9462L26.971 12.5825Z" fill="white"/>
</svg>
