<svg width="40" height="40" viewBox="0 0 40 40" fill="none" xmlns="http://www.w3.org/2000/svg">
<rect width="40" height="40" rx="20" fill="white" fill-opacity="0.2"/>
<path fill-rule="evenodd" clip-rule="evenodd" d="M17.4375 10.244C16.0675 10.9267 14.9467 11.5044 14.9469 11.5279C14.9475 11.5886 18.235 13.1812 18.3516 13.1774C18.4047 13.1757 18.7898 13.0061 19.2072 12.8006L19.9664 12.4271L20.7955 12.8348L21.6246 13.2425L22.9824 12.6589C25.0283 11.7794 25.2408 11.6831 25.2075 11.6507C25.1633 11.6077 24.4294 11.2306 22.4385 10.2279C21.4764 9.7433 20.5425 9.26816 20.3632 9.17201C20.184 9.07587 20.0128 8.99852 19.9829 9.00002C19.953 9.00152 18.8076 9.56131 17.4375 10.244ZM11.4287 13.2206L10.0026 13.9253V17.0182C10.0026 18.7193 10.0213 20.111 10.0443 20.111C10.0672 20.111 10.7688 19.82 11.6035 19.4644L13.1211 18.8178V15.5577L13.8627 15.9442C14.4341 16.2418 15.0059 16.5388 15.5781 16.8351L16.5519 17.3395L16.9852 17.1521C17.257 17.0343 17.5282 16.9154 17.7988 16.7954C18.008 16.7022 18.5214 16.481 18.9397 16.3037C19.3581 16.1263 19.7453 15.948 19.8002 15.9073C19.8732 15.8533 18.9837 15.3831 16.5104 14.1681C14.6461 13.2523 13.0609 12.5058 12.9878 12.5094C12.9147 12.513 12.2131 12.833 11.4287 13.2206ZM25.4645 13.4185C24.4932 13.838 23.6978 14.198 23.6969 14.2185C23.6961 14.239 24.2254 14.5401 24.8734 14.8875C25.5213 15.2351 26.0514 15.538 26.0514 15.5608C26.0514 15.5835 25.4781 15.8493 24.7774 16.1514C24.0767 16.4535 22.3054 17.2187 20.8413 17.8519L15.9353 19.9733C14.7012 20.507 13.5889 20.988 13.4634 21.0424C10.9427 22.134 10.2498 22.4369 10.1547 22.4889C10.059 22.5412 10.0373 22.8454 10.0203 24.3717L10 26.1922L11.2753 26.8139L12.5506 27.4355L14.319 26.672C15.2917 26.2521 16.0875 25.8866 16.0875 25.8596C16.0875 25.8328 15.9077 25.7208 15.6881 25.6106C15.4685 25.5004 15.015 25.2565 14.6803 25.0685C14.3457 24.8804 14.012 24.7079 13.9387 24.685C13.8655 24.6622 13.8066 24.6223 13.8078 24.5962C13.809 24.5703 14.5878 24.2164 15.5382 23.8099C17.3843 23.0203 18.7971 22.4117 21.8301 21.0996C23.1863 20.513 24.5427 19.9267 25.8993 19.3409C27.0916 18.8261 28.4778 18.2248 28.9798 18.0047L29.8925 17.6047L29.9128 15.7634L29.9332 13.9223L28.6397 13.2872C27.9283 12.9379 27.3201 12.6529 27.2883 12.654C27.2564 12.6549 26.4357 12.9989 25.4645 13.4185ZM29.546 20.0609C29.3554 20.15 28.9789 20.3168 28.7093 20.4315C28.4398 20.5462 27.9283 20.767 27.5727 20.9222L26.9261 21.2043L26.9114 22.8207C26.9032 23.7098 26.869 24.4332 26.8353 24.4285C26.7588 24.4176 25.5471 23.8231 24.329 23.1988C23.4499 22.7482 23.3947 22.7303 23.1881 22.8281C23.0687 22.8847 22.3549 23.191 21.6019 23.5088C20.8489 23.8266 20.2082 24.1073 20.1781 24.1328C20.148 24.1581 21.6636 24.9439 23.546 25.879L26.9685 27.5792L28.4306 26.8557C29.2346 26.4578 29.9183 26.0949 29.9498 26.0492C30.0207 25.9466 30.0146 19.8849 29.9436 19.8931C29.9156 19.8963 29.7366 19.9719 29.546 20.0609ZM21.4498 27.1758C21.1962 27.2801 20.9426 27.3846 20.6892 27.4892C19.9237 27.806 20.0737 27.8165 19.1631 27.3828C18.5566 27.094 18.2952 27.0049 18.1817 27.0481C18.0966 27.0806 17.3641 27.3959 16.5537 27.7487C15.7434 28.1016 15.0523 28.3903 15.018 28.3903C14.678 28.3903 15.2432 28.7134 17.4242 29.7658L19.9819 31L21.0581 30.4917C21.65 30.2122 22.8439 29.6524 23.7112 29.2478C24.5784 28.843 25.2773 28.5014 25.2642 28.4885C25.251 28.4757 24.5244 28.1187 23.6493 27.6953L22.0583 26.9254L21.4498 27.1758Z" fill="white"/>
</svg>
