<svg width="41" height="40" viewBox="0 0 41 40" fill="none" xmlns="http://www.w3.org/2000/svg">
<rect x="0.5" width="40" height="40" rx="20" fill="white" fill-opacity="0.2"/>
<path fill-rule="evenodd" clip-rule="evenodd" d="M30.486 13.5619C30.1814 16.7243 28.8625 24.3983 28.1916 27.9403C27.9076 29.4395 27.3482 29.9418 26.807 29.9911C25.6313 30.0981 24.7381 29.2231 23.5988 28.4856C21.8162 27.3318 20.8091 26.6138 19.0787 25.4881C17.0786 24.1866 18.3754 23.4717 19.5147 22.303C19.813 21.9968 24.9952 17.3423 25.0957 16.9204C25.1084 16.8673 25.1202 16.6704 25.0015 16.5665C24.8829 16.4626 24.708 16.4985 24.5822 16.5267C24.4034 16.5665 21.5551 18.425 16.039 22.1023C15.2304 22.6507 14.4986 22.9171 13.8419 22.9038C13.1187 22.8882 11.7278 22.4999 10.6938 22.1679C9.42548 21.7609 8.41751 21.5453 8.50533 20.8539C8.55043 20.4937 9.05283 20.1258 10.0118 19.7492C15.9164 17.2087 19.8533 15.5345 21.8234 14.7252C27.4486 12.4152 28.6173 12.0135 29.3791 12.0003C30.3334 11.9836 30.5637 12.7614 30.486 13.5619Z" fill="white"/>
</svg>
