<svg width="40" height="40" viewBox="0 0 40 40" fill="none" xmlns="http://www.w3.org/2000/svg">
<rect width="40" height="40" rx="20" fill="white" fill-opacity="0.2"/>
<path opacity="0.982" fill-rule="evenodd" clip-rule="evenodd" d="M23.2494 9.27528C22.1934 8.34464 20.9564 7.92335 19.5385 8.01142C18.5375 8.12552 17.6551 8.50743 16.8912 9.15716C14.3654 11.6579 11.8481 14.166 9.33927 16.6813C8.67108 17.3789 8.24562 18.2058 8.0629 19.1617C7.83801 20.6759 8.21619 22.0145 9.19745 23.1777C11.7463 25.6936 14.2793 28.2253 16.7966 30.7727C16.9699 30.922 17.1511 31.0637 17.3403 31.1979C17.8522 31.5416 18.4116 31.7779 19.0185 31.9066C20.6004 32.1946 21.995 31.8166 23.2021 30.7727C25.7194 28.2253 28.2525 25.6936 30.8013 23.1777C31.3462 22.5491 31.7125 21.8286 31.9004 21.0162C32.2039 19.398 31.8139 17.9766 30.7304 16.7521L29.3949 15.4174C29.5785 15.2879 29.7557 15.1501 29.9267 15.004C29.9975 14.9097 30.0763 14.8231 30.1631 14.7441C30.4229 14.3692 30.4544 13.9754 30.2576 13.5629C30.1441 13.4336 30.0298 13.3037 29.9149 13.1732C29.3236 12.7438 28.6775 12.413 27.9767 12.181L27.1258 11.9447L26.854 11.4368L26.4403 11.0234C26.0522 10.7725 25.6267 10.678 25.164 10.7399C25.0291 10.7591 24.8952 10.7749 24.7621 10.7872C24.2559 10.2828 23.7516 9.77884 23.2494 9.27528ZM26.6294 12.2755C26.2913 11.3043 25.6058 10.8437 24.573 10.8935C23.9945 11.0029 23.5454 11.3061 23.2258 11.803C22.3741 11.8346 21.5389 11.9685 20.7203 12.2046C18.764 12.8132 17.4758 14.0928 16.8557 16.0434C16.8739 17.0329 16.7714 18.0094 16.5484 18.9727C16.1991 20.0886 15.62 21.0651 14.8111 21.902C16.4936 23.6033 18.1876 25.2924 19.893 26.9693C19.9827 26.9891 20.0694 26.9812 20.153 26.9457L22.7648 24.3353C22.7067 23.8383 22.6712 23.3382 22.6585 22.8352C22.636 21.4487 22.9629 20.1534 23.6394 18.9491C24.1282 18.1062 24.8176 17.4881 25.7076 17.0947C26.5615 16.8207 27.3888 16.4821 28.1894 16.0789C28.7265 15.8098 29.211 15.4672 29.6431 15.0512C30.1569 14.4557 30.1057 13.9084 29.4895 13.4094C29.1281 13.1618 28.7421 12.9571 28.3313 12.7952C27.7759 12.5839 27.2086 12.4107 26.6294 12.2755ZM15.9339 19.4925C16.3446 18.4094 16.6243 17.2991 16.773 16.1615C15.5526 17.3931 14.3274 18.6215 13.0975 19.8468C13.0823 19.9002 13.0626 19.9514 13.0384 20.0004C13.0626 20.0493 13.0823 20.1005 13.0975 20.1539C13.4764 20.5404 13.8624 20.9184 14.2557 21.2878C14.5916 21.0702 14.9068 20.826 15.2011 20.5555C15.5 20.2407 15.7442 19.8863 15.9339 19.4925ZM26.8776 19.8232C26.2465 19.1885 25.6122 18.5585 24.9749 17.9333C24.745 18.2222 24.5284 18.5214 24.3249 18.831C24.2058 19.0613 24.0955 19.2975 23.9939 19.5397C23.9149 19.7541 23.8597 19.9746 23.8285 20.2012C23.7037 21.1415 23.7903 22.0628 24.0885 22.9651L26.8776 20.1775C26.9187 20.1253 26.9463 20.0663 26.9603 20.0004C26.936 19.9399 26.9084 19.8808 26.8776 19.8232ZM26.1685 12.5235C26.0787 11.9652 25.7675 11.5951 25.2349 11.4132C25.2714 11.7615 25.1453 12.0332 24.8567 12.2282C24.3948 12.4396 24.0166 12.3412 23.7222 11.9329C23.667 11.9959 23.6236 12.0668 23.5921 12.1455C23.4383 12.554 23.454 12.9556 23.6394 13.3503C24.0495 13.9744 24.6129 14.1752 25.3294 13.9527C25.928 13.6662 26.2077 13.1898 26.1685 12.5235Z" fill="white"/>
</svg>
