<svg width="34" height="34" viewBox="0 0 34 34" fill="none" xmlns="http://www.w3.org/2000/svg">
<path d="M20.4359 23.4905C20.6125 23.3736 20.857 23.4486 20.9295 23.642L23.6752 30.969C23.7635 31.2047 23.541 31.439 23.2874 31.3775L13.1781 28.9273C12.9061 28.8614 12.8417 28.52 13.0723 28.3672L20.4359 23.4905Z" fill="white"/>
<path d="M22.2092 21.8732C22.1966 21.8394 22.1901 21.8037 22.1901 21.7678V14.3834C22.1901 14.1746 21.9801 14.0244 21.7707 14.0836L13.1082 16.5327C12.8988 16.5919 12.6888 16.4417 12.6888 16.2329V11.4605C12.6888 11.363 12.7364 11.271 12.8176 11.2119L24.106 2.98223C24.2628 2.86785 24.4891 2.91152 24.5874 3.07515L31.4066 14.4317C31.4549 14.5122 31.4634 14.609 31.4297 14.696L25.6884 29.5272C25.5825 29.8008 25.1773 29.7987 25.0744 29.524L22.2092 21.8732Z" fill="white"/>
<path d="M9.79826 3.62229C9.85273 3.57122 9.92425 3.54 10.0003 3.53407L20.4191 2.72113C20.7446 2.69574 20.9034 3.09239 20.6435 3.28152L11.7631 9.74451C11.6809 9.80433 11.5739 9.82345 11.4747 9.79609L5.62682 8.18344C5.38628 8.1171 5.30985 7.82726 5.4887 7.6597L9.79826 3.62229Z" fill="white"/>
<path d="M3.99908 9.80621C4.024 9.61553 4.22113 9.49129 4.41408 9.54466L10.6117 11.259C10.7515 11.2976 10.8477 11.42 10.8477 11.5593V18.5001C10.8477 18.709 11.0579 18.8592 11.2673 18.7998L19.8697 16.3617C20.0791 16.3023 20.2894 16.4525 20.2894 16.6614V21.0701C20.2894 21.1724 20.2369 21.2683 20.149 21.3268L10.5003 27.7428C10.3745 27.8265 10.2048 27.8153 10.0922 27.7158L2.65516 21.1471C2.5777 21.0788 2.5395 20.9788 2.55257 20.8787L3.99908 9.80621Z" fill="white"/>
</svg>
